<svg xmlns="http://www.w3.org/2000/svg" viewBox="0 0 17 17">
  <path fill="currentColor" fill-rule="evenodd" d="M2.8 1.59H14.19c.31 0 .59 0 .82.03.25.03.52.11.74.33.22.22.29.49.33.74.03.23.03.51.03.81v.07c0 .3 0 .59-.03.81-.04.26-.11.52-.33.74-.21.21-.46.29-.7.33v3.79c0 1.31 0 2.34-.11 3.14a3.35 3.35 0 0 1-.88 2.04c-.53.53-1.2.76-2.03.87-.81.11-1.84.11-3.14.11H8.1c-1.3 0-2.33 0-3.14-.11a3.31 3.31 0 0 1-2.03-.87 3.35 3.35 0 0 1-.88-2.04c-.11-.8-.11-1.83-.11-3.14V5.45a1.23 1.23 0 0 1-.7-.33c-.22-.22-.3-.48-.33-.74-.03-.22-.03-.51-.03-.81V3.5c0-.3 0-.58.03-.81.03-.25.11-.52.33-.74.22-.22.49-.3.74-.33.23-.03.51-.03.82-.03Zm.21 3.89V9.2c0 1.35 0 2.31.09 3.04.1.71.28 1.12.58 1.42.3.3.71.48 1.42.58.73.1 1.69.1 3.04.1h.71c1.35 0 2.31 0 3.04-.1.71-.1 1.12-.28 1.42-.58.3-.3.48-.71.58-1.42.09-.73.09-1.69.09-3.04V5.48H3.01ZM1.99 2.7H2a.39.39 0 0 1 .12-.03c.15-.02.36-.02.71-.02h11.33a6.28 6.28 0 0 1 .83.05H15v.01l.03.12c.02.15.02.36.02.71s0 .55-.02.7l-.03.12v.01h-.01a.39.39 0 0 1-.12.03c-.15.02-.36.02-.71.02H2.83c-.35 0-.56 0-.71-.02A.39.39 0 0 1 2 4.37h-.01v-.01l-.03-.12c-.02-.15-.02-.35-.02-.7a6.28 6.28 0 0 1 .05-.83V2.7Zm5.43 4.2h2.15l.41.01a1.22 1.22 0 0 1 1.08.76c.06.14.07.28.08.4l.01.41v.03l-.01.41c-.01.12-.02.26-.08.4a1.22 1.22 0 0 1-1.08.76l-.41.01H7.42l-.41-.01a1.22 1.22 0 0 1-1.08-.76c-.06-.14-.07-.28-.08-.4l-.01-.41v-.03l.01-.41c.01-.12.02-.26.08-.4a1.22 1.22 0 0 1 1.08-.76l.41-.01Zm-.41 1.08c-.04.02-.08.05-.09.09l-.01.07-.01.36a3.13 3.13 0 0 0 .02.42c.01.04.05.07.09.09l.07.01.35.01h2.13l.35-.01.07-.01c.04-.02.08-.05.09-.09l.01-.07.01-.35-.01-.36-.01-.07c-.01-.04-.05-.07-.09-.09l-.07-.01-.35-.01H7.43l-.35.01-.07.01Z"/>
</svg>
