<svg xmlns="http://www.w3.org/2000/svg" viewBox="0 0 24 24">
  <g fill="none" stroke="currentColor" stroke-width="1.5">
    <path d="M9 4.5H8c-2.36 0-3.54 0-4.27.73C3 5.96 3 7.14 3 9.5v5c0 2.35 0 3.53.73 4.26.73.74 1.91.74 4.27.74h1M15.98 2.75c2.4.42 3.59.63 4.3 1.5.72.88.72 2.15.72 4.69v6.11c0 2.54 0 3.81-.72 4.69-.71.88-1.9 1.08-4.3 1.5l-2.33.41c-2.16.37-3.24.56-3.95-.06-.7-.63-.7-1.78-.7-4.07V6.47c0-2.29 0-3.44.7-4.07.71-.62 1.79-.43 3.95-.06l2.33.41Z"/>
    <path stroke-linecap="round" d="M12 11v2"/>
  </g>
</svg>
