<svg xmlns="http://www.w3.org/2000/svg" viewBox="0 0 24 24">
    <path fill="currentColor" fill-rule="evenodd" d="M11.94 1.25h.11c2.31 0 4.12-.01 5.53.18 1.45.2 2.59.6 3.48 1.5.9.89 1.3 2.03 1.5 3.48.19 1.41.19 3.22.19 5.53v.11l-.01.92.01.03-.01.02c0 1.86-.02 3.35-.18 4.56-.2 1.45-.6 2.59-1.5 3.48-.89.9-2.03 1.3-3.48 1.5-1.41.19-3.22.19-5.53.19h-.11c-2.31 0-4.12 0-5.53-.19-1.45-.2-2.59-.6-3.48-1.5-.9-.89-1.3-2.03-1.5-3.48-.16-1.21-.18-2.7-.18-4.56v-1.08c0-2.31 0-4.12.18-5.53.2-1.45.6-2.59 1.5-3.48.89-.9 2.03-1.3 3.48-1.5 1.41-.19 3.22-.18 5.53-.18Zm-9.19 12.5c.01 1.5.04 2.68.17 3.63.17 1.28.5 2.05 1.07 2.62.57.57 1.34.9 2.62 1.07 1.3.17 3.01.18 5.39.18 2.37 0 4.08-.01 5.38-.18 1.28-.17 2.05-.5 2.62-1.07.57-.57.9-1.34 1.07-2.62.13-.95.16-2.13.17-3.63h-2.41c-.97 0-1.22.01-1.44.11-.21.1-.39.28-1.02 1.02l-.61.71a4.44 4.44 0 0 1-1.54 1.4c-.55.26-1.16.26-1.93.26H11.7c-.77 0-1.38 0-1.93-.26a4.44 4.44 0 0 1-1.54-1.4l-.61-.71c-.63-.74-.81-.92-1.02-1.02-.22-.1-.47-.11-1.44-.11H2.75Zm18.5-1.5h-2.42l-.13-.01c-.77 0-1.38 0-1.93.26-.55.25-.95.71-1.45 1.3l-.09.1-.61.71c-.63.74-.81.92-1.02 1.02-.22.1-.47.12-1.44.12h-.33c-.97 0-1.22-.02-1.44-.12-.21-.1-.39-.28-1.02-1.02l-.61-.71-.09-.1c-.5-.59-.9-1.05-1.45-1.3-.55-.26-1.16-.26-1.93-.26l-.13.01H2.75V12c0-2.38 0-4.09.17-5.39.17-1.28.5-2.05 1.07-2.62.57-.57 1.34-.9 2.62-1.07 1.3-.17 3.01-.17 5.39-.17 2.37 0 4.08 0 5.38.17 1.28.17 2.05.5 2.62 1.07.57.57.9 1.34 1.07 2.62.17 1.3.18 3.01.18 5.39v.25Z"/>
</svg>
