<svg xmlns="http://www.w3.org/2000/svg" viewBox="0 0 24 24">
  <path fill="currentColor" fill-rule="evenodd" d="M8.67 4.49a7.66 7.66 0 1 1 3.51 12.83c-.15-.04-.27 0-.32.06l-3.72 3.71c-.47.48-1.14.72-1.82.64l-2.09-.23A1.7 1.7 0 0 1 3.2 21l-.21-.21a1.7 1.7 0 0 1-.5-1.03l-.23-2.09c-.08-.68.16-1.35.64-1.82l3.71-3.72c.06-.05.1-.17.06-.32a7.66 7.66 0 0 1 2-7.32Zm9.77 1.06a6.15 6.15 0 0 0-10.31 5.89c.15.59.02 1.27-.46 1.75l-3.71 3.72a.68.68 0 0 0-.21.59l.23 2.09c.01.05.03.1.07.14l.21.21c.04.04.09.06.14.07l2.09.23c.22.03.44-.05.59-.21l.71-.71-1.21-1.2a.75.75 0 1 1 1.05-1.06l1.22 1.2 1.95-1.94a1.83 1.83 0 0 1 1.75-.46 6.14 6.14 0 0 0 5.89-10.31Zm-6.39 2.5a2.76 2.76 0 0 1 3.89 0 2.76 2.76 0 0 1 0 3.89 2.76 2.76 0 0 1-3.89 0 2.76 2.76 0 0 1 0-3.89Zm2.83 1.06a1.25 1.25 0 1 0-1.77 1.77 1.25 1.25 0 1 0 1.77-1.77Z"/>
</svg>
