<svg xmlns="http://www.w3.org/2000/svg" viewBox="0 0 11 14">
  <path fill="currentColor" fill-rule="evenodd" d="M6.81.74a2.4 2.4 0 0 1 3.47 0c.95.99.95 2.6 0 3.59L5.5 9.27a3.92 3.92 0 0 1-1.31 1.04c-.21.11-.43.18-.79.31l-1.68.58-.4.14c-.36.12-.76.02-1.03-.25-.27-.28-.36-.7-.24-1.07l.69-2.16c.12-.37.19-.6.29-.82.12-.25.27-.49.43-.72.15-.19.31-.36.58-.64L6.81.74ZM1.7 10.18l-.53-.55.46-1.43c.13-.41.18-.58.26-.74.08-.19.19-.37.32-.54a7 7 0 0 1 .52-.57l3.7-3.84a3.98 3.98 0 0 0 2.13 2.21l-3.7 3.84c-.3.31-.42.43-.55.54-.16.13-.34.24-.52.33-.15.08-.32.13-.72.27l-1.37.48Zm7.61-6.24-.28-.08a2.77 2.77 0 0 1-1.08-.71 2.82 2.82 0 0 1-.77-1.41l.3-.31a1.47 1.47 0 0 1 2.13 0c.59.61.59 1.6 0 2.21l-.3.3ZM0 13.51c0-.27.21-.49.47-.49h10.05V14H.47a.48.48 0 0 1-.47-.49Z"/>
</svg>
